<svg width="156" height="45" viewBox="0 0 156 45" fill="none" xmlns="http://www.w3.org/2000/svg">
<path d="M56 7.95998V38.5435C56 39.6073 55.1671 40.4695 54.1404 40.4695C53.1132 40.4695 52.2802 39.6073 52.2802 38.5435V13.4753C51.4629 14.6158 50.6462 15.7575 49.8295 16.8981V36.9948C49.8295 38.1039 48.9966 39.0029 47.9699 39.0029C46.9426 39.0029 46.1097 38.1039 46.1097 36.9948V10.8623C45.2918 12.0529 44.4744 13.2435 43.6565 14.4347V35.2644C43.6565 36.4207 42.8236 37.3577 41.7963 37.3577C40.7696 37.3577 39.9373 36.4207 39.9373 35.2644V8.01734C36.6948 12.935 33.4522 17.8526 30.209 22.7708C29.4727 23.8878 28.7363 25.0053 27.9994 26.1223C27.2618 25.0053 26.5254 23.8878 25.7891 22.7708C22.5465 17.8532 19.3046 12.9362 16.0627 8.02036V35.2675C16.0627 36.4231 15.2304 37.3601 14.2031 37.3601C13.1758 37.3601 12.3435 36.4231 12.3435 35.2675V14.4365C11.5256 13.2459 10.7076 12.0553 9.89027 10.8641V36.9948C9.89027 38.1039 9.05736 39.0029 8.03008 39.0029C7.00343 39.0029 6.17052 38.1039 6.17052 36.9948V16.8993C5.35318 15.7594 4.53709 14.6183 3.71975 13.4777V38.5435C3.71975 39.6073 2.88684 40.4695 1.85956 40.4695C0.832911 40.4695 0 39.6073 0 38.5435V7.963C0 7.32482 0.299648 6.76091 0.761269 6.41013C0.781204 6.39443 0.801139 6.37933 0.819828 6.36605C0.837271 6.35398 0.855337 6.34251 0.872781 6.33043C1.03226 6.23141 1.55992 5.95187 2.30125 6.20002C2.9155 6.4059 3.33289 6.85872 3.51666 7.08875C3.55217 7.13222 3.57772 7.16785 3.59578 7.192C4.37013 8.25944 5.23855 9.45851 6.17052 10.7487V5.11144C6.17052 4.45636 6.46144 3.87433 6.91185 3.50906C6.91683 3.50302 6.92182 3.5 6.9268 3.49638C6.94798 3.47947 6.96916 3.46317 6.99034 3.44747C6.99159 3.44687 6.99346 3.44506 6.9947 3.44385C7.00405 3.43842 7.01339 3.43117 7.02274 3.42393C7.02461 3.42332 7.02648 3.42272 7.02772 3.42091C7.03271 3.41729 7.03707 3.41427 7.04143 3.41185C7.04205 3.41125 7.04267 3.41064 7.0433 3.41064C7.0489 3.40702 7.05513 3.40279 7.06074 3.39978C7.06697 3.39555 7.07382 3.39132 7.08005 3.3883C7.08067 3.3877 7.0813 3.3877 7.08192 3.38649C7.10622 3.37623 7.36039 3.23374 7.65318 3.18604C7.6725 3.18303 7.69181 3.18121 7.71174 3.1782C7.72669 3.17638 7.74227 3.17518 7.75784 3.17457C7.77342 3.17337 7.78961 3.17276 7.80519 3.17216C7.86375 3.16914 7.9248 3.17035 7.98896 3.17397C8.00828 3.17518 8.02759 3.17638 8.04752 3.1794C8.06621 3.18121 8.08428 3.18303 8.1011 3.18544C8.13599 3.18967 8.17149 3.19631 8.20825 3.20355C8.43065 3.24944 8.59698 3.33276 8.70725 3.38951C8.95831 3.51751 9.12339 3.6606 9.2891 3.8049C9.46353 3.95644 9.59747 4.09953 9.69092 4.207C9.7258 4.25229 9.75259 4.28972 9.77066 4.31568C10.5444 5.42841 11.4116 6.67699 12.3435 8.02217V2.02924C12.3435 1.34699 12.6338 0.741418 13.0836 0.359238C13.0986 0.346559 13.1129 0.334483 13.1266 0.322408C13.1521 0.301276 13.1795 0.281352 13.2063 0.262032C13.2132 0.256598 13.22 0.252976 13.2269 0.248749C13.2337 0.243919 13.2406 0.239089 13.2475 0.234863C13.2499 0.233655 13.2524 0.232448 13.2549 0.230033C13.2599 0.227014 13.2655 0.223995 13.2711 0.220373C13.2904 0.208297 13.3129 0.195015 13.3372 0.182336C13.3378 0.181732 13.339 0.181128 13.3403 0.180524C13.3502 0.175091 13.3621 0.169657 13.3733 0.163619C13.3764 0.161808 13.3795 0.1606 13.382 0.158789C13.3926 0.153959 13.4026 0.149129 13.4138 0.144299C13.4343 0.134639 13.4555 0.125582 13.478 0.115922C13.5178 0.0996205 13.5608 0.0845266 13.6075 0.0694325C13.6219 0.0652063 13.6368 0.0609797 13.6518 0.0573573C13.6549 0.0561497 13.6586 0.0549422 13.6617 0.0543385C13.6798 0.0495084 13.6985 0.0446783 13.7178 0.040452C13.7408 0.0350182 13.7658 0.0295843 13.7913 0.0259617C13.8094 0.0217355 13.8274 0.0199241 13.8461 0.0169053C13.8623 0.0144903 13.8785 0.0132828 13.8947 0.0114715C13.9034 0.00966029 13.9122 0.00905652 13.9209 0.00845265C13.9414 0.00664133 13.962 0.00543381 13.9832 0.00483008C14.0069 0.00362249 14.0311 0.00241504 14.0554 0.00241504C14.2311 0.00241504 14.4274 0.0319993 14.6423 0.109281C15.2615 0.333276 15.6789 0.830171 15.8596 1.0759C15.8596 1.07651 15.8602 1.07771 15.8602 1.07771C15.8913 1.11998 15.915 1.1556 15.9318 1.18035C19.0604 5.86191 23.7102 12.88 27.9994 19.4043C32.2885 12.8788 36.939 5.8601 40.0682 1.17794C40.0844 1.15318 40.1087 1.11756 40.1398 1.07469C40.1398 1.07469 40.1404 1.07469 40.1404 1.07409C40.3205 0.827152 40.7379 0.330257 41.3577 0.106866C41.5726 0.0289805 41.7689 0 41.9439 0C41.9688 0 41.9931 0.000603838 42.0162 0.00181128C42.038 0.00241516 42.0586 0.00422644 42.0791 0.00603761C42.0878 0.00664133 42.0966 0.0072452 42.1047 0.00845265C42.1215 0.010264 42.1377 0.0126789 42.1539 0.0144903C42.1719 0.0169053 42.1906 0.019924 42.2081 0.0235467C42.2342 0.0277729 42.2585 0.0326031 42.2822 0.0374332C42.3015 0.0422632 42.3202 0.0464896 42.3383 0.0519234C42.3414 0.0525273 42.3451 0.053131 42.3476 0.0543385C42.3632 0.0579611 42.3781 0.0627912 42.3925 0.0664137C42.4392 0.0815078 42.4822 0.0972054 42.522 0.113507C42.5445 0.122563 42.5657 0.132224 42.5862 0.141884C42.5968 0.14611 42.6074 0.15094 42.618 0.156978C42.6205 0.157581 42.6236 0.158789 42.6261 0.161204C42.6379 0.166638 42.6491 0.172675 42.6597 0.178109C42.661 0.178109 42.6622 0.178713 42.6622 0.179921C42.6871 0.1926 42.7096 0.205882 42.7282 0.217354C42.7345 0.220976 42.7401 0.224599 42.7451 0.228222C42.7476 0.229429 42.7501 0.230637 42.7519 0.232448L42.7725 0.245731C42.78 0.249957 42.7868 0.254183 42.7937 0.259013C42.8204 0.278334 42.8472 0.298862 42.8734 0.320597C42.8871 0.331465 42.9014 0.344143 42.9164 0.356823C43.3662 0.739003 43.6565 1.34457 43.6565 2.02682V8.02036C44.5878 6.67578 45.4544 5.426 46.2293 4.31327C46.2468 4.2867 46.2742 4.24987 46.3091 4.20338C46.4025 4.09652 46.5365 3.95403 46.7109 3.80248C46.8766 3.65819 47.0411 3.51509 47.2927 3.38649C47.403 3.33034 47.5687 3.24582 47.7917 3.20114C47.8285 3.19329 47.864 3.18665 47.8989 3.18242C47.9157 3.18061 47.9338 3.17759 47.9519 3.17638C47.9724 3.17397 47.9917 3.17276 48.0104 3.17095C48.0746 3.16733 48.1356 3.16672 48.1942 3.16854C48.2104 3.16914 48.2266 3.17035 48.2422 3.17216C48.2577 3.17276 48.2733 3.17397 48.2883 3.17578C48.3082 3.17759 48.3275 3.18061 48.3468 3.18303C48.6409 3.23193 48.8957 3.37502 48.9181 3.38408C48.9187 3.38408 48.9193 3.38408 48.9199 3.38468C48.9262 3.3883 48.933 3.39253 48.9393 3.39615C48.9449 3.40038 48.9505 3.4034 48.9567 3.40823C48.9567 3.40823 48.9573 3.40883 48.9579 3.40944C48.9629 3.41125 48.9673 3.41427 48.9717 3.41789C48.9735 3.4197 48.9754 3.4203 48.9773 3.42151C48.986 3.42815 48.9959 3.43479 49.0053 3.44083C49.0065 3.44204 49.0078 3.44385 49.009 3.44445C49.0302 3.46015 49.052 3.47645 49.0732 3.49336C49.0782 3.49698 49.0832 3.5006 49.0881 3.50604C49.5379 3.87192 49.8295 4.45394 49.8295 5.10902V10.7475C50.7614 9.4561 51.6299 8.25763 52.4042 7.18958C52.4223 7.16543 52.4478 7.13041 52.4827 7.08634C52.6665 6.85631 53.0839 6.40288 53.6987 6.1976C54.4401 5.94946 54.9677 6.22839 55.1266 6.32801C55.1447 6.33949 55.1627 6.35096 55.1802 6.36364C55.1989 6.37692 55.2188 6.39201 55.2387 6.40711C55.6997 6.75789 56 7.32301 56 7.95998Z" fill="white"/>
<path d="M27.8965 36.0173L4.2816 41.0816C3.72217 41.2018 3.81188 42 4.38501 42H51.6148C52.188 42 52.2777 41.2018 51.7183 41.0816L28.1033 36.0173C28.0354 36.0022 27.965 36.0022 27.8965 36.0173Z" fill="white"/>
<path d="M88.491 2.965V12H87.009V5.812L84.253 12H83.226L80.457 5.812V12H78.975V2.965H80.574L83.746 10.05L86.905 2.965H88.491ZM90.8549 8.386C90.8549 7.66667 91.0022 7.02967 91.2969 6.475C91.6002 5.92033 92.0075 5.49133 92.5189 5.188C93.0389 4.876 93.6109 4.72 94.2349 4.72C94.7982 4.72 95.2879 4.83267 95.7039 5.058C96.1285 5.27467 96.4665 5.54767 96.7179 5.877V4.837H98.2129V12H96.7179V10.934C96.4665 11.272 96.1242 11.5537 95.6909 11.779C95.2575 12.0043 94.7635 12.117 94.2089 12.117C93.5935 12.117 93.0302 11.961 92.5189 11.649C92.0075 11.3283 91.6002 10.8863 91.2969 10.323C91.0022 9.751 90.8549 9.10533 90.8549 8.386ZM96.7179 8.412C96.7179 7.918 96.6139 7.489 96.4059 7.125C96.2065 6.761 95.9422 6.48367 95.6129 6.293C95.2835 6.10233 94.9282 6.007 94.5469 6.007C94.1655 6.007 93.8102 6.10233 93.4809 6.293C93.1515 6.475 92.8829 6.748 92.6749 7.112C92.4755 7.46733 92.3759 7.892 92.3759 8.386C92.3759 8.88 92.4755 9.31333 92.6749 9.686C92.8829 10.0587 93.1515 10.3447 93.4809 10.544C93.8189 10.7347 94.1742 10.83 94.5469 10.83C94.9282 10.83 95.2835 10.7347 95.6129 10.544C95.9422 10.3533 96.2065 10.076 96.4059 9.712C96.6139 9.33933 96.7179 8.906 96.7179 8.412ZM102.551 5.877C102.768 5.513 103.054 5.23133 103.409 5.032C103.773 4.824 104.202 4.72 104.696 4.72V6.254H104.319C103.739 6.254 103.297 6.40133 102.993 6.696C102.699 6.99067 102.551 7.502 102.551 8.23V12H101.069V4.837H102.551V5.877ZM107.723 3.888C107.454 3.888 107.229 3.797 107.047 3.615C106.865 3.433 106.774 3.20767 106.774 2.939C106.774 2.67033 106.865 2.445 107.047 2.263C107.229 2.081 107.454 1.99 107.723 1.99C107.983 1.99 108.204 2.081 108.386 2.263C108.568 2.445 108.659 2.67033 108.659 2.939C108.659 3.20767 108.568 3.433 108.386 3.615C108.204 3.797 107.983 3.888 107.723 3.888ZM108.451 13.404C108.451 14.106 108.273 14.613 107.918 14.925C107.571 15.2457 107.064 15.406 106.397 15.406H105.63V14.158H106.137C106.44 14.158 106.652 14.0973 106.774 13.976C106.904 13.8633 106.969 13.6727 106.969 13.404V4.837H108.451V13.404ZM117.871 8.243C117.871 8.51167 117.854 8.75433 117.819 8.971H112.346C112.39 9.543 112.602 10.0023 112.983 10.349C113.365 10.6957 113.833 10.869 114.387 10.869C115.185 10.869 115.748 10.5353 116.077 9.868H117.676C117.46 10.5267 117.065 11.0683 116.493 11.493C115.93 11.909 115.228 12.117 114.387 12.117C113.703 12.117 113.087 11.9653 112.541 11.662C112.004 11.35 111.579 10.9167 111.267 10.362C110.964 9.79867 110.812 9.14867 110.812 8.412C110.812 7.67533 110.96 7.02967 111.254 6.475C111.558 5.91167 111.978 5.47833 112.515 5.175C113.061 4.87167 113.685 4.72 114.387 4.72C115.063 4.72 115.666 4.86733 116.194 5.162C116.723 5.45667 117.135 5.87267 117.429 6.41C117.724 6.93867 117.871 7.54967 117.871 8.243ZM116.324 7.775C116.316 7.229 116.121 6.79133 115.739 6.462C115.358 6.13267 114.886 5.968 114.322 5.968C113.811 5.968 113.373 6.13267 113.009 6.462C112.645 6.78267 112.429 7.22033 112.359 7.775H116.324ZM121.722 2.38V12H120.24V2.38H121.722ZM126.06 2.38V12H124.578V2.38H126.06ZM128.421 8.386C128.421 7.66667 128.569 7.02967 128.863 6.475C129.167 5.92033 129.574 5.49133 130.085 5.188C130.605 4.876 131.177 4.72 131.801 4.72C132.365 4.72 132.854 4.83267 133.27 5.058C133.695 5.27467 134.033 5.54767 134.284 5.877V4.837H135.779V12H134.284V10.934C134.033 11.272 133.691 11.5537 133.257 11.779C132.824 12.0043 132.33 12.117 131.775 12.117C131.16 12.117 130.597 11.961 130.085 11.649C129.574 11.3283 129.167 10.8863 128.863 10.323C128.569 9.751 128.421 9.10533 128.421 8.386ZM134.284 8.412C134.284 7.918 134.18 7.489 133.972 7.125C133.773 6.761 133.509 6.48367 133.179 6.293C132.85 6.10233 132.495 6.007 132.113 6.007C131.732 6.007 131.377 6.10233 131.047 6.293C130.718 6.475 130.449 6.748 130.241 7.112C130.042 7.46733 129.942 7.892 129.942 8.386C129.942 8.88 130.042 9.31333 130.241 9.686C130.449 10.0587 130.718 10.3447 131.047 10.544C131.385 10.7347 131.741 10.83 132.113 10.83C132.495 10.83 132.85 10.7347 133.179 10.544C133.509 10.3533 133.773 10.076 133.972 9.712C134.18 9.33933 134.284 8.906 134.284 8.412ZM88.491 17.965V27H87.009V20.812L84.253 27H83.226L80.457 20.812V27H78.975V17.965H80.574L83.746 25.05L86.905 17.965H88.491ZM90.8549 23.386C90.8549 22.6667 91.0022 22.0297 91.2969 21.475C91.6002 20.9203 92.0075 20.4913 92.5189 20.188C93.0389 19.876 93.6109 19.72 94.2349 19.72C94.7982 19.72 95.2879 19.8327 95.7039 20.058C96.1285 20.2747 96.4665 20.5477 96.7179 20.877V19.837H98.2129V27H96.7179V25.934C96.4665 26.272 96.1242 26.5537 95.6909 26.779C95.2575 27.0043 94.7635 27.117 94.2089 27.117C93.5935 27.117 93.0302 26.961 92.5189 26.649C92.0075 26.3283 91.6002 25.8863 91.2969 25.323C91.0022 24.751 90.8549 24.1053 90.8549 23.386ZM96.7179 23.412C96.7179 22.918 96.6139 22.489 96.4059 22.125C96.2065 21.761 95.9422 21.4837 95.6129 21.293C95.2835 21.1023 94.9282 21.007 94.5469 21.007C94.1655 21.007 93.8102 21.1023 93.4809 21.293C93.1515 21.475 92.8829 21.748 92.6749 22.112C92.4755 22.4673 92.3759 22.892 92.3759 23.386C92.3759 23.88 92.4755 24.3133 92.6749 24.686C92.8829 25.0587 93.1515 25.3447 93.4809 25.544C93.8189 25.7347 94.1742 25.83 94.5469 25.83C94.9282 25.83 95.2835 25.7347 95.6129 25.544C95.9422 25.3533 96.2065 25.076 96.4059 24.712C96.6139 24.3393 96.7179 23.906 96.7179 23.412ZM102.551 20.877C102.768 20.513 103.054 20.2313 103.409 20.032C103.773 19.824 104.202 19.72 104.696 19.72V21.254H104.319C103.739 21.254 103.297 21.4013 102.993 21.696C102.699 21.9907 102.551 22.502 102.551 23.23V27H101.069V19.837H102.551V20.877ZM109.803 23.425L113.105 27H111.103L108.451 23.919V27H106.969V17.38H108.451V22.97L111.051 19.837H113.105L109.803 23.425ZM121.642 23.243C121.642 23.5117 121.625 23.7543 121.59 23.971H116.117C116.16 24.543 116.373 25.0023 116.754 25.349C117.135 25.6957 117.603 25.869 118.158 25.869C118.955 25.869 119.519 25.5353 119.848 24.868H121.447C121.23 25.5267 120.836 26.0683 120.264 26.493C119.701 26.909 118.999 27.117 118.158 27.117C117.473 27.117 116.858 26.9653 116.312 26.662C115.775 26.35 115.35 25.9167 115.038 25.362C114.735 24.7987 114.583 24.1487 114.583 23.412C114.583 22.6753 114.73 22.0297 115.025 21.475C115.328 20.9117 115.749 20.4783 116.286 20.175C116.832 19.8717 117.456 19.72 118.158 19.72C118.834 19.72 119.436 19.8673 119.965 20.162C120.494 20.4567 120.905 20.8727 121.2 21.41C121.495 21.9387 121.642 22.5497 121.642 23.243ZM120.095 22.775C120.086 22.229 119.891 21.7913 119.51 21.462C119.129 21.1327 118.656 20.968 118.093 20.968C117.582 20.968 117.144 21.1327 116.78 21.462C116.416 21.7827 116.199 22.2203 116.13 22.775H120.095ZM125.739 21.046V25.011C125.739 25.2797 125.8 25.4747 125.921 25.596C126.051 25.7087 126.268 25.765 126.571 25.765H127.481V27H126.311C125.644 27 125.133 26.844 124.777 26.532C124.422 26.22 124.244 25.713 124.244 25.011V21.046H123.399V19.837H124.244V18.056H125.739V19.837H127.481V21.046H125.739ZM130.511 18.888C130.243 18.888 130.017 18.797 129.835 18.615C129.653 18.433 129.562 18.2077 129.562 17.939C129.562 17.6703 129.653 17.445 129.835 17.263C130.017 17.081 130.243 16.99 130.511 16.99C130.771 16.99 130.992 17.081 131.174 17.263C131.356 17.445 131.447 17.6703 131.447 17.939C131.447 18.2077 131.356 18.433 131.174 18.615C130.992 18.797 130.771 18.888 130.511 18.888ZM131.239 19.837V27H129.757V19.837H131.239ZM137.709 19.72C138.272 19.72 138.775 19.837 139.217 20.071C139.668 20.305 140.019 20.6517 140.27 21.111C140.521 21.5703 140.647 22.125 140.647 22.775V27H139.178V22.996C139.178 22.3547 139.018 21.865 138.697 21.527C138.376 21.1803 137.939 21.007 137.384 21.007C136.829 21.007 136.387 21.1803 136.058 21.527C135.737 21.865 135.577 22.3547 135.577 22.996V27H134.095V19.837H135.577V20.656C135.82 20.3613 136.127 20.1317 136.5 19.967C136.881 19.8023 137.284 19.72 137.709 19.72ZM146.333 19.72C146.888 19.72 147.378 19.8327 147.802 20.058C148.236 20.2747 148.574 20.5477 148.816 20.877V19.837H150.311V27.117C150.311 27.7757 150.173 28.3607 149.895 28.872C149.618 29.392 149.215 29.7993 148.686 30.094C148.166 30.3887 147.542 30.536 146.814 30.536C145.844 30.536 145.038 30.3063 144.396 29.847C143.755 29.3963 143.391 28.781 143.304 28.001H144.773C144.886 28.3737 145.124 28.6727 145.488 28.898C145.861 29.132 146.303 29.249 146.814 29.249C147.412 29.249 147.893 29.067 148.257 28.703C148.63 28.339 148.816 27.8103 148.816 27.117V25.921C148.565 26.259 148.223 26.545 147.789 26.779C147.365 27.0043 146.879 27.117 146.333 27.117C145.709 27.117 145.137 26.961 144.617 26.649C144.106 26.3283 143.699 25.8863 143.395 25.323C143.101 24.751 142.953 24.1053 142.953 23.386C142.953 22.6667 143.101 22.0297 143.395 21.475C143.699 20.9203 144.106 20.4913 144.617 20.188C145.137 19.876 145.709 19.72 146.333 19.72ZM148.816 23.412C148.816 22.918 148.712 22.489 148.504 22.125C148.305 21.761 148.041 21.4837 147.711 21.293C147.382 21.1023 147.027 21.007 146.645 21.007C146.264 21.007 145.909 21.1023 145.579 21.293C145.25 21.475 144.981 21.748 144.773 22.112C144.574 22.4673 144.474 22.892 144.474 23.386C144.474 23.88 144.574 24.3133 144.773 24.686C144.981 25.0587 145.25 25.3447 145.579 25.544C145.917 25.7347 146.273 25.83 146.645 25.83C147.027 25.83 147.382 25.7347 147.711 25.544C148.041 25.3533 148.305 25.076 148.504 24.712C148.712 24.3393 148.816 23.906 148.816 23.412ZM88.491 32.965V42H87.009V35.812L84.253 42H83.226L80.457 35.812V42H78.975V32.965H80.574L83.746 40.05L86.905 32.965H88.491ZM97.9139 38.243C97.9139 38.5117 97.8965 38.7543 97.8619 38.971H92.3889C92.4322 39.543 92.6445 40.0023 93.0259 40.349C93.4072 40.6957 93.8752 40.869 94.4299 40.869C95.2272 40.869 95.7905 40.5353 96.1199 39.868H97.7189C97.5022 40.5267 97.1079 41.0683 96.5359 41.493C95.9725 41.909 95.2705 42.117 94.4299 42.117C93.7452 42.117 93.1299 41.9653 92.5839 41.662C92.0465 41.35 91.6219 40.9167 91.3099 40.362C91.0065 39.7987 90.8549 39.1487 90.8549 38.412C90.8549 37.6753 91.0022 37.0297 91.2969 36.475C91.6002 35.9117 92.0205 35.4783 92.5579 35.175C93.1039 34.8717 93.7279 34.72 94.4299 34.72C95.1059 34.72 95.7082 34.8673 96.2369 35.162C96.7655 35.4567 97.1772 35.8727 97.4719 36.41C97.7665 36.9387 97.9139 37.5497 97.9139 38.243ZM96.3669 37.775C96.3582 37.229 96.1632 36.7913 95.7819 36.462C95.4005 36.1327 94.9282 35.968 94.3649 35.968C93.8535 35.968 93.4159 36.1327 93.0519 36.462C92.6879 36.7827 92.4712 37.2203 92.4019 37.775H96.3669ZM99.7883 38.386C99.7883 37.6667 99.9356 37.0297 100.23 36.475C100.534 35.9203 100.941 35.4913 101.452 35.188C101.972 34.876 102.549 34.72 103.181 34.72C103.649 34.72 104.109 34.824 104.559 35.032C105.019 35.2313 105.383 35.5 105.651 35.838V32.38H107.146V42H105.651V40.921C105.409 41.2677 105.071 41.5537 104.637 41.779C104.213 42.0043 103.723 42.117 103.168 42.117C102.544 42.117 101.972 41.961 101.452 41.649C100.941 41.3283 100.534 40.8863 100.23 40.323C99.9356 39.751 99.7883 39.1053 99.7883 38.386ZM105.651 38.412C105.651 37.918 105.547 37.489 105.339 37.125C105.14 36.761 104.876 36.4837 104.546 36.293C104.217 36.1023 103.862 36.007 103.48 36.007C103.099 36.007 102.744 36.1023 102.414 36.293C102.085 36.475 101.816 36.748 101.608 37.112C101.409 37.4673 101.309 37.892 101.309 38.386C101.309 38.88 101.409 39.3133 101.608 39.686C101.816 40.0587 102.085 40.3447 102.414 40.544C102.752 40.7347 103.108 40.83 103.48 40.83C103.862 40.83 104.217 40.7347 104.546 40.544C104.876 40.3533 105.14 40.076 105.339 39.712C105.547 39.3393 105.651 38.906 105.651 38.412ZM110.757 33.888C110.488 33.888 110.263 33.797 110.081 33.615C109.899 33.433 109.808 33.2077 109.808 32.939C109.808 32.6703 109.899 32.445 110.081 32.263C110.263 32.081 110.488 31.99 110.757 31.99C111.017 31.99 111.238 32.081 111.42 32.263C111.602 32.445 111.693 32.6703 111.693 32.939C111.693 33.2077 111.602 33.433 111.42 33.615C111.238 33.797 111.017 33.888 110.757 33.888ZM111.485 34.837V42H110.003V34.837H111.485ZM113.847 38.386C113.847 37.6667 113.994 37.0297 114.289 36.475C114.592 35.9203 114.999 35.4913 115.511 35.188C116.031 34.876 116.603 34.72 117.227 34.72C117.79 34.72 118.28 34.8327 118.696 35.058C119.12 35.2747 119.458 35.5477 119.71 35.877V34.837H121.205V42H119.71V40.934C119.458 41.272 119.116 41.5537 118.683 41.779C118.249 42.0043 117.755 42.117 117.201 42.117C116.585 42.117 116.022 41.961 115.511 41.649C114.999 41.3283 114.592 40.8863 114.289 40.323C113.994 39.751 113.847 39.1053 113.847 38.386ZM119.71 38.412C119.71 37.918 119.606 37.489 119.398 37.125C119.198 36.761 118.934 36.4837 118.605 36.293C118.275 36.1023 117.92 36.007 117.539 36.007C117.157 36.007 116.802 36.1023 116.473 36.293C116.143 36.475 115.875 36.748 115.667 37.112C115.467 37.4673 115.368 37.892 115.368 38.386C115.368 38.88 115.467 39.3133 115.667 39.686C115.875 40.0587 116.143 40.3447 116.473 40.544C116.811 40.7347 117.166 40.83 117.539 40.83C117.92 40.83 118.275 40.7347 118.605 40.544C118.934 40.3533 119.198 40.076 119.398 39.712C119.606 39.3393 119.71 38.906 119.71 38.412Z" fill="white"/>
</svg>
